# xmcd
#
# Track frame offsets: 
#        150
#        6690
#        25992
#        38969
#        48139
#        67877
#        85745
#        103543
#        124660
#        148397
#        165751
#        193924
#        219892
#        228723
#        241133
#        252842
#        279284
#        294526
#        312066
#
# Disc length: 4504 seconds
#
# Revision: 0
# Processed by: cddbd v1.5.2PL0 Copyright (c) Steve Scherf et al.
# Submitted via: ExactAudioCopy v0.95b4
#
DISCID=06119613
DTITLE=Jacek Kaczmarski - Archiwum Radia Wolna Europa
DYEAR=1983
DGENRE=Ballad
TTITLE0=Oblezenie
TTITLE1=Przejscie Polskow przez Morze Czerwone
TTITLE2=Egzamin
TTITLE3=Weselmy sie
TTITLE4=Koncert fortepianowy
TTITLE5=Marsz intelektualisty
TTITLE6=Rejtan czyli raport ambasadora
TTITLE7=Ballada o ubocznych skutkach alkoholizmu
TTITLE8=Lasko Karel Kryl
TTITLE9=Ballada pozytywna
TTITLE10=Wigilia na Syberii
TTITLE11=Zrodlo
TTITLE12=Krzyz i pies
TTITLE13=Baran
TTITLE14=Przypowiesc prawdziwa o szaliku
TTITLE15=Rublow
TTITLE16=Swiatlo
TTITLE17=Kniazia Jaremy nawrocenie
TTITLE18=Z XVI-wiecznym portretem trumiennym rozmowa
EXTD=
EXTT0=
EXTT1=
EXTT2=
EXTT3=
EXTT4=
EXTT5=
EXTT6=
EXTT7=
EXTT8=
EXTT9=
EXTT10=
EXTT11=
EXTT12=
EXTT13=
EXTT14=
EXTT15=
EXTT16=
EXTT17=
EXTT18=
PLAYORDER=
